<svg xmlns="http://www.w3.org/2000/svg" version="1.1" class="hesburgh-mark" viewBox="0 0 123 45" preserveAspectRatio="xMinYMin meet">
  <g class="nd-mark">
    <path fill="#0F223E" d="M5.891,23.577v0.002C5.9,23.574,5.896,23.577,5.891,23.577"/>
    <path fill="#0F223E" d="M35.592,19.086c0,0.409,0,2.085,0.039,2.397c-0.106,0.154-0.298,0.205-0.461,0.192c-0.217-0.288-0.614-0.749-1.594-1.865l-3.19-3.643c-0.887-0.993-1.323-1.511-1.554-1.714c-0.041,0-0.041,0.149-0.041,0.874v2.652c0,1.024,0.015,2.279,0.245,2.689c0.123,0.202,0.354,0.284,0.696,0.338l0.299,0.039c0.121,0.098,0.108,0.358-0.027,0.398c-0.505-0.025-1.035-0.04-1.557-0.04c-0.568,0-0.936,0.015-1.414,0.04c-0.11-0.069-0.136-0.301-0.027-0.398l0.299-0.063c0.259-0.045,0.503-0.097,0.602-0.313c0.174-0.424,0.174-1.612,0.174-2.689v-3.229c0-1.062,0.015-1.281-0.449-1.674c-0.15-0.121-0.53-0.232-0.721-0.276l-0.206-0.04c-0.095-0.079-0.082-0.352,0.057-0.394c0.515,0.056,1.264,0.042,1.608,0.042c0.284,0,0.61-0.017,0.937-0.042c0.235,0.589,1.721,2.303,2.195,2.818l1.365,1.475c0.573,0.629,1.837,2.07,1.977,2.155c0.04-0.042,0.04-0.108,0.04-0.33v-2.657c0-1.019-0.014-2.275-0.262-2.685c-0.122-0.203-0.34-0.285-0.68-0.343l-0.313-0.04c-0.121-0.092-0.109-0.352,0.028-0.394c0.529,0.025,1.034,0.042,1.567,0.042c0.585,0,0.94-0.017,1.431-0.042c0.111,0.068,0.137,0.302,0.027,0.394l-0.314,0.071c-0.26,0.038-0.489,0.098-0.587,0.312c-0.189,0.423-0.189,1.607-0.189,2.685V19.086z"/>
    <path fill="#0F223E" d="M42.511,12.191c-2.862,0-4.879,2.058-4.879,4.836c0,2.429,1.77,4.592,4.852,4.592c2.749,0,4.795-1.999,4.795-4.686C47.279,14.454,45.658,12.191,42.511,12.191 M42.331,12.735c2.171,0,3.098,2.388,3.098,4.444c0,2.739-1.256,3.898-2.81,3.898c-2.331,0-3.137-2.563-3.137-4.442C39.482,13.731,40.971,12.735,42.331,12.735"/>
    <path fill="#0F223E" d="M51.496,13.554c0-0.573-0.01-0.597-0.366-0.597h-0.404c-1.251,0-1.618,0.149-2.122,1.251c-0.099,0.082-0.382,0.041-0.438-0.095c0.23-0.737,0.438-1.58,0.531-2.062C48.723,12.013,48.78,12,48.849,12c0.053,0,0.108,0.013,0.135,0.052c0.07,0.342,0.261,0.358,1.186,0.358h4.834c0.666,0,0.872-0.042,1.036-0.358C56.093,12.026,56.147,12,56.203,12c0.081,0,0.151,0.026,0.178,0.066c-0.138,0.559-0.247,1.732-0.206,2.168c-0.069,0.114-0.299,0.141-0.421,0.043c-0.177-1.064-0.435-1.32-1.893-1.32h-0.414c-0.357,0-0.371,0.023-0.371,0.597v5.89c0,1.443,0.126,1.483,0.767,1.553l0.488,0.051c0.096,0.098,0.084,0.341-0.026,0.399c-0.792-0.026-1.403-0.04-2.004-0.04c-0.597,0-1.24,0.014-2.112,0.04c-0.109-0.059-0.124-0.328-0.027-0.399l0.572-0.063c0.638-0.057,0.762-0.097,0.762-1.54V13.554z"/>
    <path fill="#0F223E" d="M58.833,19.443c0,1.444-0.122,1.483-0.763,1.564l-0.301,0.039c-0.12,0.098-0.081,0.341,0.027,0.398c0.628-0.025,1.242-0.04,1.842-0.04c0.598,0,1.211,0.015,1.808,0.04c0.114-0.058,0.129-0.301,0.029-0.398l-0.298-0.039c-0.64-0.081-0.765-0.12-0.765-1.564v-1.745c0-0.286,0.016-0.302,0.424-0.302c0.447,0,0.6,0.055,0.845,0.464c0.327,0.532,0.711,1.284,1.077,1.856c0.833,1.267,1.541,1.798,2.849,1.798c0.474,0,0.736-0.045,0.898-0.083c0.038-0.069,0.038-0.218-0.028-0.272c-0.162-0.015-0.555-0.097-0.94-0.425c-0.64-0.531-1.324-1.688-2.41-3.528c-0.055-0.082-0.082-0.19,0-0.232c0.668-0.273,1.635-0.9,1.635-2.152c0-0.979-0.505-1.623-1.198-1.988c-0.601-0.328-1.526-0.465-2.592-0.465c-1.117,0-2.275,0.042-3.134,0.125c-0.107,0.067-0.107,0.282-0.013,0.379l0.354,0.039c0.641,0.069,0.654,0.233,0.654,1.543V19.443z M60.412,13.582c0-0.625,0.016-0.671,0.724-0.671c1.186,0,1.882,0.941,1.882,2.02c0,1.296-0.614,1.949-1.95,1.949c-0.656,0-0.656-0.027-0.656-0.462V13.582z"/>
    <path fill="#0F223E" d="M68.817,14.375c0-1.445-0.121-1.49-0.762-1.583l-0.219-0.03c-0.091-0.092-0.081-0.338,0.029-0.394c0.258,0.011,0.545,0.025,0.844,0.025c0.3,0.017,0.614,0.017,0.912,0.017h2.605c0.873,0,1.665-0.017,1.839-0.042c0.053,0.232,0.136,1.309,0.217,1.894c-0.054,0.113-0.326,0.137-0.434,0.056c-0.218-0.792-0.423-1.131-0.859-1.239c-0.313-0.098-0.724-0.121-1.089-0.121h-0.914c-0.588,0-0.588,0.023-0.588,0.799v2.307c0,0.355,0.014,0.369,0.33,0.369h0.65c1.191,0,1.421-0.014,1.516-0.603l0.095-0.461c0.11-0.099,0.368-0.099,0.436,0.013c-0.014,0.366-0.039,0.858-0.039,1.363c0,0.514,0.025,0.996,0.039,1.431c-0.068,0.097-0.326,0.097-0.436,0.012l-0.095-0.546c-0.095-0.568-0.325-0.597-1.516-0.597h-0.65c-0.316,0-0.33,0.028-0.33,0.368v1.732c0,0.692,0.026,1.182,0.233,1.415c0.163,0.19,0.395,0.3,1.539,0.3c1.731,0.027,2.031-0.369,2.508-1.474c0.123-0.094,0.357-0.053,0.436,0.081c-0.079,0.572-0.382,1.611-0.573,1.979c-0.3-0.015-0.736-0.026-1.307-0.026c-0.571-0.014-1.254-0.014-2.058-0.014h-1.555c-0.597,0-1.429,0.014-2.043,0.04c-0.109-0.059-0.122-0.302-0.025-0.399l0.502-0.051c0.641-0.069,0.762-0.109,0.762-1.553V14.375z"/>
    <path fill="#0F223E" d="M81.016,19.443c0,1.444-0.121,1.483-0.763,1.564l-0.301,0.039c-0.092,0.098-0.08,0.341,0.028,0.398c0.599-0.025,1.213-0.04,1.731-0.04c0.257,0,0.545,0.015,0.871,0.04c0.328,0.013,0.696,0.038,1.105,0.038c1.239,0,2.41-0.161,3.379-0.651c1.689-0.859,2.441-2.409,2.441-3.926c0-2.033-1.162-3.473-2.797-4.073c-0.991-0.357-1.922-0.466-3.213-0.466c-1.336,0-2.429,0.042-3.408,0.125c-0.11,0.068-0.11,0.31-0.014,0.38l0.284,0.027c0.642,0.081,0.654,0.245,0.654,1.554V19.443z M82.598,14.112c0-0.642,0.013-0.926,0.108-1.006c0.097-0.085,0.535-0.196,1.102-0.196c2.279,0,3.846,1.312,3.846,4.009c0,2.306-1.089,4.021-3.515,4.021c-1.447,0-1.541-0.707-1.541-2.03V14.112z"/>
    <path fill="#0F223E" d="M94.681,18.064c0.383,0,0.424,0,0.56,0.369l0.638,1.854c0.18,0.584,0.139,0.666-0.349,0.72l-0.304,0.039c-0.078,0.086-0.067,0.329,0.043,0.398c0.475-0.014,1.074-0.039,1.66-0.039c0.709,0,1.215,0.014,1.774,0.039c0.093-0.069,0.093-0.3-0.015-0.398l-0.205-0.039c-0.694-0.121-0.764-0.217-1.077-1.13l-1.964-5.711c-0.217-0.613-0.391-1.256-0.609-1.867c-0.057-0.067-0.126-0.107-0.234-0.107c-0.028,0-0.475,0.556-0.953,0.652c0.041,0.232-0.082,0.561-0.262,0.997l-1.867,4.851c-0.283,0.734-0.502,1.307-0.666,1.662c-0.205,0.45-0.354,0.571-0.748,0.63l-0.41,0.062c-0.092,0.123-0.08,0.329,0.015,0.398c0.476-0.025,0.899-0.039,1.347-0.039c0.56,0.014,1.012,0.014,1.444,0.039c0.112-0.058,0.124-0.3,0.026-0.398l-0.393-0.062c-0.506-0.071-0.559-0.112-0.285-0.917l0.558-1.634c0.12-0.369,0.11-0.369,0.463-0.369H94.681z M93.086,17.451c-0.323,0-0.366,0-0.219-0.392l0.571-1.597c0.248-0.642,0.355-0.979,0.41-1.077h0.025c0.068,0.098,0.153,0.354,0.385,1.077l0.574,1.635c0.107,0.326,0.053,0.354-0.328,0.354H93.086z"/>
    <path fill="#0F223E" d="M111.2,21.047c0.136,0.058,0.12,0.341-0.026,0.398c-0.59-0.025-1.119-0.039-1.666-0.039c-0.639,0-1.226,0.014-1.824,0.039c-0.108-0.058-0.163-0.312-0.028-0.398l0.368-0.062c0.546-0.084,0.585-0.193,0.585-1.121v-4.307V14.29h-0.026c-0.371,0.75-0.559,1.158-0.818,1.703l-1.17,2.398c-0.463,0.953-1.148,2.469-1.394,3.106c-0.052,0.055-0.256,0.055-0.353,0c-0.23-0.735-0.818-2.071-1.129-2.751l-1.213-2.617c-0.26-0.573-0.629-1.433-0.789-1.84h-0.03c-0.028,0.668-0.054,1.731-0.08,2.302c-0.029,0.832-0.06,2.047-0.06,3.162c0,0.904,0.017,1.118,0.604,1.215l0.447,0.078c0.099,0.086,0.099,0.341-0.01,0.398c-0.508-0.025-0.93-0.039-1.433-0.039c-0.437,0-0.925,0.014-1.457,0.039c-0.126-0.069-0.126-0.328-0.044-0.398l0.232-0.023c0.653-0.084,0.762-0.288,0.848-1.121c0.109-0.856,0.137-1.738,0.203-3.158c0.055-0.926,0.133-2.06,0.133-2.892c0-0.641-0.199-0.923-0.732-1.008l-0.465-0.083c-0.078-0.092-0.068-0.352,0.055-0.395c0.41,0.026,0.776,0.043,1.281,0.043c0.478,0,0.954,0,1.459-0.043c0.055,0.819,0.408,1.525,0.747,2.264l1.503,3.148c0.108,0.228,0.463,0.914,0.639,1.226c0.217-0.396,0.41-0.779,0.711-1.417l1.279-2.618c0.435-0.896,0.873-1.7,1.1-2.603c0.371,0.026,0.824,0.043,1.121,0.043c0.574,0,1.051-0.017,1.433-0.043c0.147,0.056,0.175,0.315,0.04,0.395l-0.45,0.071c-0.597,0.078-0.735,0.311-0.735,1.036c0,2.017,0.025,4.034,0.121,6.05c0.045,0.912,0.191,1.007,0.627,1.065L111.2,21.047z"/>
    <path fill="#0F223E" d="M114.115,14.375c0-1.445-0.122-1.49-0.762-1.583l-0.221-0.03c-0.094-0.092-0.082-0.338,0.028-0.394c0.257,0.011,0.545,0.025,0.845,0.025c0.299,0.017,0.613,0.017,0.914,0.017h2.602c0.873,0,1.667-0.017,1.842-0.042c0.053,0.232,0.137,1.309,0.217,1.894c-0.055,0.113-0.326,0.137-0.439,0.056c-0.213-0.792-0.422-1.131-0.855-1.239c-0.314-0.098-0.72-0.121-1.09-0.121h-0.913c-0.585,0-0.585,0.023-0.585,0.799v2.307c0,0.355,0.014,0.369,0.326,0.369h0.654c1.188,0,1.416-0.014,1.515-0.603l0.093-0.461c0.109-0.099,0.367-0.099,0.434,0.013c-0.014,0.366-0.039,0.858-0.039,1.363c0,0.514,0.025,0.996,0.039,1.431c-0.066,0.097-0.324,0.097-0.434,0.012l-0.093-0.546c-0.099-0.568-0.326-0.597-1.515-0.597h-0.654c-0.312,0-0.326,0.028-0.326,0.368v1.732c0,0.692,0.029,1.182,0.23,1.415c0.164,0.19,0.395,0.3,1.541,0.3c1.73,0.027,2.031-0.369,2.508-1.474c0.123-0.094,0.354-0.053,0.437,0.081c-0.082,0.572-0.385,1.611-0.573,1.979c-0.301-0.015-0.738-0.026-1.309-0.026c-0.572-0.014-1.253-0.014-2.059-0.014h-1.553c-0.6,0-1.433,0.014-2.047,0.04c-0.105-0.059-0.121-0.302-0.025-0.399l0.506-0.051c0.64-0.069,0.762-0.109,0.762-1.553V14.375z"/>
    <path fill="#0F223E" d="M27.602,4.831c0-0.85-0.062-0.874-0.579-0.988l-0.176-0.035c-0.085-0.063-0.072-0.272,0.027-0.308c0.419,0.021,0.804,0.035,1.2,0.035c0.391,0,0.775-0.015,1.256-0.035c0.099,0.035,0.111,0.244,0.022,0.308L29.12,3.843c-0.531,0.088-0.582,0.139-0.582,0.988v1.74c0,1.23,0.409,2.069,1.605,2.069c1.11,0,1.592-0.839,1.592-2.058V5.436c0-1.235-0.072-1.519-0.605-1.593l-0.261-0.035C30.785,3.732,30.797,3.56,30.897,3.5c0.393,0.021,0.677,0.035,1.035,0.035s0.631-0.015,1.024-0.035c0.1,0.06,0.1,0.244,0.011,0.308l-0.37,0.035c-0.32,0.038-0.416,0.37-0.416,1.593v1.221c0,1.579-0.73,2.404-2.298,2.404c-0.789,0-1.38-0.158-1.751-0.516c-0.37-0.369-0.53-0.936-0.53-1.742V4.831z"/>
    <path fill="#0F223E" d="M41.148,5.436c0-1.235-0.073-1.542-0.529-1.592l-0.394-0.036C40.139,3.733,40.148,3.56,40.248,3.5c0.457,0.021,0.739,0.035,1.101,0.035c0.356,0,0.629-0.015,1.021-0.035c0.097,0.06,0.097,0.244,0.011,0.308l-0.366,0.036c-0.323,0.037-0.421,0.369-0.421,1.592v2.07c0,0.249,0,1.247,0.037,1.434c-0.037,0.074-0.151,0.138-0.259,0.109c-0.137-0.172-0.385-0.429-1.147-1.257l-1.877-1.999c-0.468-0.492-0.789-0.814-0.949-0.951c-0.049,0-0.049,0.137-0.049,0.519v1.63c0,1.236,0.074,1.555,0.53,1.591l0.392,0.039c0.1,0.073,0.076,0.245-0.021,0.309c-0.46-0.026-0.744-0.04-1.097-0.04c-0.362,0-0.594,0.014-1.027,0.04c-0.1-0.052-0.1-0.247-0.013-0.309l0.371-0.039c0.319-0.036,0.42-0.37,0.42-1.591V4.782c0-0.408-0.013-0.582-0.261-0.766c-0.096-0.076-0.332-0.15-0.456-0.173l-0.184-0.036c-0.085-0.074-0.085-0.26,0.023-0.308c0.47,0.035,0.802,0.035,1.064,0.035c0.172,0,0.342-0.015,0.495-0.035c0.243,0.469,0.703,0.999,1.204,1.516l1.163,1.195c0.272,0.273,0.987,1.055,1.122,1.15c0.073-0.027,0.073-0.201,0.073-0.494V5.436z"/>
    <path fill="#0F223E" d="M46.454,4.831c0-0.85-0.05-0.9-0.579-0.988L45.64,3.808c-0.085-0.063-0.075-0.272,0.027-0.308c0.48,0.021,0.863,0.035,1.255,0.035c0.396,0,0.779-0.015,1.26-0.035c0.097,0.035,0.111,0.244,0.024,0.308l-0.234,0.035c-0.532,0.088-0.581,0.139-0.581,0.988v2.762c0,0.854,0.049,0.899,0.581,0.988l0.234,0.039c0.087,0.062,0.073,0.269-0.024,0.309c-0.469-0.026-0.879-0.04-1.26-0.04c-0.392,0-0.775,0.014-1.255,0.04c-0.102-0.04-0.112-0.247-0.027-0.309l0.235-0.039c0.529-0.089,0.579-0.134,0.579-0.988V4.831z"/>
    <path fill="#0F223E" d="M52.141,4.856c-0.371-0.815-0.418-0.875-0.714-0.951l-0.406-0.098c-0.076-0.074-0.089-0.248,0.01-0.308c0.321,0.021,0.729,0.035,1.11,0.035c0.448,0,0.804-0.015,1.198-0.035c0.101,0.048,0.113,0.244,0,0.308L53.08,3.844c-0.319,0.05-0.319,0.21-0.049,0.815l0.606,1.367c0.307,0.704,0.515,1.162,0.7,1.566c0.251-0.517,0.459-1.035,0.693-1.55c0.259-0.569,0.604-1.425,0.727-1.783c0.089-0.258,0.073-0.342-0.295-0.416l-0.197-0.036c-0.114-0.074-0.072-0.235,0.024-0.308c0.36,0.021,0.678,0.035,1.011,0.035c0.395,0,0.681-0.015,0.878-0.035c0.12,0.048,0.147,0.244,0.06,0.308l-0.346,0.073c-0.37,0.076-0.444,0.187-0.838,1.022l-0.937,2.016c-0.37,0.788-0.73,1.686-0.877,2.095c-0.038,0.035-0.088,0.047-0.151,0.047c-0.047,0-0.097-0.012-0.145-0.047c-0.112-0.32-0.248-0.717-0.409-1.062L52.141,4.856z"/>
    <path fill="#0F223E" d="M60.696,4.831c0-0.85-0.051-0.891-0.52-0.988l-0.173-0.035c-0.088-0.05-0.071-0.261,0.025-0.308c0.186,0.012,0.372,0.021,0.558,0.021c0.197,0.015,0.392,0.015,0.589,0.015h1.754c0.543,0,1.032-0.015,1.146-0.035c0.015,0.147,0.076,0.726,0.137,1.258c-0.051,0.099-0.251,0.11-0.322,0.024c-0.072-0.32-0.148-0.481-0.222-0.595c-0.196-0.294-0.752-0.294-1.046-0.294h-0.544c-0.434,0-0.447,0.012-0.447,0.392v1.372c0,0.224,0,0.248,0.234,0.248h0.581c0.656,0,0.714-0.1,0.816-0.47l0.062-0.231c0.061-0.093,0.245-0.077,0.309,0.02c-0.024,0.358-0.024,0.582-0.024,0.866c0,0.308,0,0.53,0.024,0.886c-0.064,0.101-0.248,0.113-0.309,0.029l-0.062-0.237c-0.102-0.37-0.16-0.467-0.816-0.467h-0.581c-0.234,0-0.234,0.037-0.234,0.282v0.889c0,0.37,0.025,0.755,0.138,0.885c0.11,0.128,0.334,0.176,1.034,0.176c0.791,0,1.249-0.04,1.605-1.026c0.087-0.084,0.283-0.06,0.321,0.051c-0.062,0.519-0.234,1.137-0.37,1.372c-0.38-0.015-0.738-0.026-1.083-0.026c-0.347-0.014-0.68-0.014-1.013-0.014h-1.088c-0.392,0-0.775,0.014-1.371,0.04c-0.097-0.04-0.109-0.247-0.02-0.309l0.333-0.039c0.528-0.061,0.579-0.134,0.579-0.988V4.831z"/>
    <path fill="#0F223E" d="M68.63,7.593c0,0.854-0.048,0.876-0.581,0.988L67.865,8.62c-0.113,0.049-0.1,0.269,0.022,0.309c0.435-0.027,0.815-0.04,1.21-0.04c0.384,0,0.792,0.013,1.31,0.04c0.097-0.04,0.11-0.247,0.022-0.309l-0.283-0.039c-0.531-0.077-0.581-0.135-0.581-0.988V6.718c0-0.174,0.027-0.194,0.347-0.194c0.197,0,0.395,0.048,0.495,0.194c0.258,0.396,0.591,0.936,0.899,1.332c0.544,0.69,0.988,0.924,1.727,0.924c0.237,0,0.406-0.021,0.519-0.06c0.051-0.037,0.051-0.147,0-0.197c-0.197-0.009-0.428-0.076-0.652-0.258c-0.408-0.333-0.953-0.937-1.57-1.975c-0.037-0.062-0.048-0.138,0-0.184c0.482-0.174,1.098-0.532,1.098-1.321c0-1.296-1.243-1.479-2.394-1.479c-0.676,0-1.366,0.021-2.045,0.071c-0.124,0.041-0.102,0.294,0,0.31l0.346,0.05c0.28,0.038,0.296,0.246,0.296,1.049V7.593zM69.564,4.2c0-0.319,0.089-0.344,0.544-0.344c0.864,0,1.297,0.542,1.297,1.159c0,0.851-0.42,1.176-1.22,1.176c-0.607,0-0.621,0-0.621-0.311V4.2z"/>
    <path fill="#0F223E" d="M77.6,6.371c-0.592-0.309-1.101-0.79-1.101-1.48c0-0.898,0.691-1.528,1.939-1.528c0.43,0,0.729,0.114,1.146,0.186c0.103,0.21,0.188,0.678,0.175,1.211c-0.038,0.098-0.263,0.108-0.321,0.022c-0.101-0.433-0.422-1.058-1.146-1.058c-0.729,0-1.006,0.414-1.006,0.836c0,0.443,0.338,0.717,0.832,0.976l0.767,0.391c0.446,0.229,0.995,0.746,0.995,1.571c0,0.962-0.787,1.564-2.01,1.564c-0.754,0-1.248-0.258-1.422-0.38c-0.107-0.177-0.255-0.619-0.255-1.272c0.048-0.124,0.234-0.136,0.321-0.024c0.097,0.444,0.638,1.322,1.47,1.322c0.629,0,1.033-0.323,1.033-0.892c0-0.393-0.16-0.798-0.859-1.159L77.6,6.371z"/>
    <path fill="#0F223E" d="M84.056,4.831c0-0.85-0.051-0.9-0.582-0.988l-0.233-0.035c-0.089-0.063-0.075-0.272,0.022-0.308c0.484,0.021,0.865,0.035,1.259,0.035s0.774-0.015,1.261-0.035c0.098,0.035,0.11,0.244,0.021,0.308l-0.233,0.035c-0.528,0.088-0.581,0.139-0.581,0.988v2.762c0,0.854,0.053,0.899,0.581,0.988l0.233,0.039c0.089,0.062,0.076,0.269-0.021,0.309c-0.47-0.026-0.877-0.04-1.261-0.04c-0.394,0-0.774,0.014-1.259,0.04c-0.098-0.04-0.111-0.247-0.022-0.309l0.233-0.039c0.531-0.089,0.582-0.134,0.582-0.988V4.831z"/>
    <path fill="#0F223E" d="M91.136,4.214c0-0.32-0.016-0.32-0.26-0.32h-0.385c-0.751,0-1.07,0.076-1.37,0.922C89,4.891,88.864,4.856,88.816,4.759c0.134-0.533,0.273-1.147,0.332-1.46c0.05-0.049,0.176-0.049,0.224,0c0.013,0.249,0.187,0.235,0.679,0.235h3.43c0.455,0,0.546-0.013,0.643-0.235c0.086-0.049,0.184-0.024,0.223,0.039c-0.1,0.318-0.146,0.976-0.125,1.443c-0.049,0.099-0.26,0.109-0.308,0.015c-0.085-0.804-0.409-0.902-1.147-0.902h-0.42c-0.237,0-0.274,0-0.274,0.32v3.38c0,0.853,0.053,0.927,0.583,0.986l0.333,0.04c0.085,0.062,0.075,0.27-0.024,0.309c-0.511-0.027-0.976-0.039-1.357-0.039c-0.396,0-0.84,0.012-1.358,0.039c-0.101-0.039-0.11-0.247-0.024-0.309l0.334-0.04c0.529-0.06,0.58-0.134,0.58-0.986V4.214z"/>
    <path fill="#0F223E" d="M99.266,7.249c0-0.381-0.036-0.481-0.347-1.052l-0.898-1.663c-0.26-0.493-0.383-0.604-0.704-0.669l-0.321-0.058C96.91,3.732,96.935,3.535,97.031,3.5c0.41,0.021,0.691,0.035,1.137,0.035c0.371,0,0.654-0.015,1.052-0.035c0.095,0.048,0.134,0.244,0.011,0.308l-0.172,0.036c-0.273,0.061-0.312,0.138-0.113,0.518l0.458,0.875c0.183,0.371,0.368,0.706,0.554,1.022c0.196-0.333,0.381-0.625,0.592-1.022l0.494-0.901c0.186-0.342,0.207-0.454-0.086-0.491l-0.258-0.036c-0.115-0.063-0.103-0.26,0.023-0.308c0.372,0.021,0.654,0.035,0.936,0.035c0.276,0,0.532-0.015,0.877-0.035c0.1,0.035,0.123,0.244,0.028,0.308l-0.298,0.058c-0.383,0.075-0.448,0.151-0.83,0.77l-0.764,1.23c-0.441,0.705-0.467,0.827-0.467,1.188v0.665c0,0.729,0.047,0.803,0.578,0.863l0.312,0.039c0.084,0.062,0.071,0.269-0.029,0.309c-0.539-0.027-0.948-0.04-1.329-0.04c-0.396,0-0.779,0.013-1.33,0.04c-0.101-0.04-0.115-0.247-0.031-0.309l0.314-0.039c0.53-0.061,0.577-0.135,0.577-0.863V7.249z"/>
    <path fill="#0F223E" d="M109.917,3.323c-1.789,0-3.049,1.26-3.049,2.901c0,1.555,1.136,2.798,3.049,2.798c1.736,0,2.999-1.211,2.999-2.875C112.917,4.643,111.904,3.323,109.917,3.323 M109.83,3.682c1.357,0,1.988,1.333,1.988,2.652c0,1.689-0.904,2.335-1.84,2.335c-1.435,0-2.012-1.37-2.012-2.644C107.966,4.285,108.939,3.682,109.83,3.682"/>
    <path fill="#0F223E" d="M116.036,4.828c0-0.852-0.062-0.876-0.521-0.986l-0.146-0.036c-0.086-0.064-0.075-0.273,0.024-0.311c0.168,0.013,0.346,0.026,0.529,0.026c0.188,0.011,0.385,0.011,0.58,0.011h1.715c0.545,0,1.014-0.011,1.186-0.037c0.012,0.149,0.025,0.729,0.064,1.262c-0.053,0.122-0.248,0.135-0.328,0.022c-0.07-0.321-0.145-0.481-0.217-0.593c-0.212-0.309-0.754-0.292-1.052-0.292h-0.479c-0.383,0-0.418,0-0.418,0.428v1.427c0,0.229,0,0.249,0.232,0.249h0.665c0.655,0,0.72-0.1,0.815-0.466l0.063-0.235c0.062-0.087,0.245-0.072,0.306,0.024c-0.019,0.359-0.019,0.577-0.019,0.864c0,0.31,0,0.532,0.019,0.888c-0.061,0.098-0.244,0.112-0.306,0.024l-0.063-0.233c-0.096-0.369-0.16-0.469-0.815-0.469h-0.665c-0.232,0-0.232,0.036-0.232,0.282v0.915c0,0.853,0.047,0.937,0.58,0.985l0.383,0.041c0.082,0.058,0.071,0.267-0.025,0.308c-0.62-0.025-1.025-0.041-1.408-0.041c-0.393,0-0.777,0.016-1.258,0.041c-0.1-0.041-0.111-0.25-0.027-0.308l0.235-0.041c0.53-0.086,0.582-0.133,0.582-0.985V4.828z"/>
    <path fill="#0F223E" d="M5.443,6.592c0.091,0.271,0.23,0.68,0.23,0.68s0.422-0.085,0.702-0.14C6.188,7.345,5.904,7.67,5.904,7.67s0.284,0.323,0.471,0.538C6.096,8.152,5.674,8.07,5.674,8.07s-0.139,0.408-0.23,0.676C5.351,8.479,5.21,8.07,5.21,8.07S4.79,8.152,4.51,8.208C4.698,7.993,4.981,7.67,4.981,7.67S4.698,7.345,4.51,7.132c0.28,0.055,0.701,0.14,0.701,0.14S5.351,6.862,5.443,6.592 M4.999,6.901C4.792,6.86,3.646,6.633,3.646,6.633s0.769,0.88,0.907,1.037C4.416,7.828,3.646,8.706,3.646,8.706S4.792,8.481,4.999,8.44C5.066,8.64,5.443,9.744,5.443,9.744S5.818,8.64,5.888,8.44C6.095,8.481,7.24,8.706,7.24,8.706S6.471,7.828,6.331,7.67C6.471,7.513,7.24,6.633,7.24,6.633S6.095,6.86,5.888,6.901C5.818,6.702,5.443,5.598,5.443,5.598S5.066,6.702,4.999,6.901"/>
    <path fill="#0F223E" d="M8.318,16.379c0.078-0.174,0.128-0.29,0.176-0.374c0.029-0.051,0.066-0.06,0.106-0.069l0.043-0.01c0.007-0.015,0.011-0.04-0.003-0.05c-0.05,0.003-0.106,0.006-0.167,0.006c-0.055,0-0.112-0.003-0.184-0.006c-0.011,0.01-0.015,0.035-0.002,0.05l0.049,0.012c0.05,0.013,0.056,0.025,0.029,0.096c-0.091,0.237-0.193,0.478-0.286,0.694c-0.016-0.04-0.062-0.143-0.093-0.219l-0.125-0.311c-0.068-0.176-0.082-0.214-0.082-0.229c0-0.015,0.014-0.022,0.051-0.031l0.042-0.012c0.017-0.012,0.015-0.039-0.002-0.05c-0.09,0.003-0.146,0.006-0.225,0.006c-0.066,0-0.14-0.003-0.207-0.006c-0.016,0.006-0.016,0.035-0.006,0.048l0.042,0.009c0.07,0.014,0.086,0.038,0.132,0.155l0.3,0.729c0.03,0.073,0.057,0.157,0.079,0.227c0.008,0.006,0.019,0.01,0.032,0.01c0.012,0,0.025-0.004,0.029-0.01c0.03-0.087,0.109-0.29,0.179-0.447L8.318,16.379z"/>
    <path fill="#0F223E" d="M9.084,16.775c0,0.185,0.014,0.189,0.094,0.198l0.036,0.007c0.013,0.013,0.012,0.043-0.001,0.05c-0.075-0.003-0.152-0.005-0.224-0.005c-0.076,0-0.155,0.002-0.229,0.005c-0.013-0.007-0.014-0.037-0.003-0.05l0.037-0.007c0.08-0.009,0.094-0.198,0.094-0.198v-0.644c0-0.186-0.014-0.191-0.094-0.202l-0.037-0.004c-0.011-0.011-0.01-0.043,0.003-0.049c0.074,0.003,0.15,0.006,0.229,0.006c0.072,0,0.149-0.003,0.224-0.006c0.013,0.006,0.014,0.038,0.001,0.049L9.178,15.93c-0.08,0.011-0.094,0.017-0.094,0.202V16.775z"/>
    <path fill="#0F223E" d="M9.786,16.026c0-0.071,0-0.075-0.044-0.075H9.647c-0.155,0-0.2,0.019-0.263,0.158c-0.011,0.013-0.047,0.005-0.055-0.011c0.03-0.095,0.055-0.201,0.067-0.264c0.002-0.004,0.011-0.006,0.018-0.006c0.006,0,0.015,0.002,0.016,0.006c0.008,0.045,0.034,0.048,0.147,0.048h0.686c0.083,0,0.108-0.006,0.129-0.048c0.006-0.003,0.014-0.006,0.02-0.006c0.01,0,0.019,0.003,0.022,0.009c-0.017,0.073-0.032,0.219-0.025,0.275c-0.009,0.016-0.038,0.019-0.052,0.007c-0.022-0.136-0.054-0.169-0.233-0.169h-0.096c-0.046,0-0.046,0.004-0.046,0.075v0.749c0,0.185,0.013,0.189,0.093,0.198l0.061,0.007c0.011,0.013,0.011,0.043-0.004,0.05c-0.098-0.003-0.173-0.005-0.247-0.005c-0.073,0-0.153,0.002-0.26,0.005c-0.015-0.007-0.017-0.041-0.003-0.05l0.07-0.009c0.078-0.007,0.094-0.012,0.094-0.196V16.026z"/>
    <path fill="#0F223E" d="M10.725,16.547c-0.042,0-0.057-0.001-0.029-0.074l0.074-0.202c0.029-0.082,0.044-0.126,0.052-0.138h0.004c0.007,0.012,0.017,0.044,0.049,0.138l0.071,0.207c0.021,0.06,0.009,0.069-0.043,0.069H10.725z M10.927,16.626c0.05,0,0.065,0,0.082,0.048l0.071,0.209c0.023,0.075,0.017,0.086-0.046,0.09l-0.037,0.008c-0.009,0.011-0.008,0.042,0.006,0.051c0.059-0.003,0.137-0.006,0.211-0.006c0.089,0,0.154,0.003,0.225,0.006c0.012-0.009,0.012-0.039-0.003-0.051l-0.026-0.008c-0.089-0.014-0.136-0.143-0.136-0.143l-0.249-0.727c-0.028-0.076-0.051-0.157-0.079-0.236c-0.006-0.009-0.014-0.015-0.028-0.015c-0.004,0-0.063,0.071-0.122,0.085c0.003,0.026-0.01,0.068-0.034,0.124l-0.236,0.619c-0.037,0.093-0.064,0.166-0.085,0.213c-0.026,0.055-0.044,0.071-0.096,0.078l-0.052,0.009c-0.012,0.016-0.01,0.042,0.003,0.051c0.06-0.003,0.115-0.006,0.171-0.006c0.07,0.003,0.128,0.003,0.185,0.006c0.013-0.007,0.014-0.039,0.003-0.051l-0.051-0.009c-0.065-0.009-0.071-0.014-0.036-0.115l0.061-0.183c0.017-0.048,0.023-0.048,0.067-0.048H10.927z"/>
    <path fill="#0F223E" d="M7.9,18.71c0,0.184-0.015,0.19-0.088,0.199l-0.035,0.006c-0.011,0.012-0.009,0.045,0.003,0.049c0.07-0.003,0.14-0.004,0.199-0.004c0.03,0,0.063,0.001,0.101,0.004c0.037,0.004,0.08,0.007,0.128,0.007c0.142,0,0.278-0.021,0.388-0.085c0.197-0.108,0.283-0.307,0.283-0.497c0-0.26-0.134-0.443-0.323-0.519c-0.114-0.046-0.222-0.06-0.371-0.06c-0.154,0-0.28,0.006-0.392,0.016c-0.013,0.008-0.013,0.04-0.003,0.048l0.033,0.003C7.898,17.888,7.9,17.909,7.9,18.076V18.71z M8.081,18.034c0-0.083,0.001-0.121,0.013-0.131c0.011-0.009,0.062-0.022,0.127-0.022c0.263,0,0.444,0.166,0.444,0.508c0,0.294-0.126,0.515-0.405,0.515c-0.166,0-0.179-0.094-0.179-0.261V18.034z"/>
    <path fill="#0F223E" d="M9.108,18.064c0-0.182-0.017-0.189-0.095-0.2l-0.029-0.006c-0.011-0.011-0.01-0.04,0.004-0.047c0.067,0.003,0.142,0.004,0.217,0.004c0.075,0,0.152-0.001,0.226-0.004c0.012,0.007,0.015,0.036,0.002,0.047l-0.037,0.006c-0.079,0.011-0.093,0.019-0.093,0.2v0.398c0,0.236,0.07,0.439,0.303,0.439c0.221,0,0.312-0.17,0.312-0.434v-0.22c0-0.129-0.002-0.29-0.033-0.34c-0.015-0.026-0.041-0.038-0.083-0.045L9.768,17.86c-0.015-0.013-0.013-0.045,0.004-0.049c0.056,0.003,0.121,0.004,0.186,0.004c0.071,0,0.117-0.001,0.178-0.004c0.014,0.008,0.017,0.036,0.004,0.049l-0.038,0.007c-0.03,0.007-0.061,0.016-0.073,0.042c-0.023,0.051-0.023,0.206-0.023,0.34v0.209c0,0.157-0.024,0.305-0.112,0.399c-0.088,0.097-0.214,0.13-0.328,0.13c-0.159,0-0.27-0.034-0.348-0.11c-0.077-0.075-0.11-0.195-0.11-0.372V18.064z"/>
    <path fill="#0F223E" d="M10.62,18.064c0-0.179,0.014-0.183,0.094-0.197l0.037-0.005c0.013-0.011,0.011-0.044-0.004-0.051c-0.074,0.003-0.148,0.004-0.225,0.004c-0.076,0-0.152-0.001-0.235-0.004c-0.016,0.007-0.016,0.04-0.003,0.051l0.046,0.005c0.079,0.015,0.094,0.019,0.094,0.197v0.646c0,0.182-0.015,0.186-0.094,0.196l-0.051,0.008c-0.016,0.011-0.009,0.046,0.005,0.051c0.069-0.004,0.154-0.005,0.238-0.005h0.176c0.094,0,0.179,0,0.246,0.001c0.07,0,0.123,0.003,0.158,0.004c0.02-0.048,0.058-0.179,0.071-0.251c-0.01-0.015-0.034-0.019-0.053-0.01c-0.077,0.179-0.104,0.188-0.291,0.188c-0.136,0-0.162-0.015-0.181-0.039c-0.026-0.03-0.028-0.09-0.028-0.179V18.064z"/>
    <path fill="#0F223E" d="M10.955,18.4l-0.003,0.014h0.051l0.004-0.012c0.017-0.045,0.037-0.102,0.107-0.102c0.024,0.001,0.05,0.008,0.119,0.04l0.018,0.008c0.136,0.063,0.154,0.072,0.2,0.071c0.074,0.003,0.16-0.059,0.178-0.193l0.002-0.013l-0.052,0.001l-0.004,0.008c-0.015,0.075-0.048,0.108-0.106,0.108c-0.031-0.001-0.042-0.003-0.159-0.06c-0.11-0.05-0.146-0.061-0.184-0.061C11.125,18.211,10.984,18.2,10.955,18.4"/>
    <path fill="#0F223E" d="M17.915,20.291c0,0-0.699,0.445-2.641,0.195c-1.941-0.251-2.625,0.22-2.625,0.22v-6.195c0,0,0.564-0.468,2.505-0.218c1.94,0.25,2.761-0.075,2.761-0.075V20.291z M12.171,20.699c0,0-0.686-0.468-2.625-0.218c-1.941,0.25-2.641-0.198-2.641-0.198v-6.069c0,0,0.819,0.325,2.761,0.075c1.942-0.251,2.505,0.217,2.505,0.217V20.699zM18.386,14.486v-0.912c0,0-1.192,0.525-3.233,0.236c-1.938-0.277-2.745,0.254-2.745,0.254s-0.808-0.531-2.747-0.254c-2.041,0.289-3.234-0.236-3.234-0.236v0.912H5.885v6.908h5.637c0,0,0.271,0.346,0.886,0.346c0.613,0,0.883-0.346,0.883-0.346h5.64v-6.908H18.386z"/>
    <path fill="#0F223E" d="M14,16.187c-0.01,0.014-0.037,0.015-0.046,0.004c-0.028-0.102-0.093-0.241-0.291-0.241c-0.189,0-0.381,0.148-0.381,0.485c0,0.35,0.199,0.521,0.392,0.521c0.188,0,0.27-0.139,0.312-0.244c0.012-0.016,0.037-0.01,0.044,0.008c-0.01,0.108-0.051,0.217-0.072,0.25c-0.018,0.003-0.034,0.008-0.051,0.012c-0.034,0.013-0.137,0.041-0.233,0.041c-0.147,0-0.276-0.034-0.383-0.109c-0.122-0.087-0.213-0.237-0.213-0.454c0-0.191,0.079-0.342,0.19-0.437c0.11-0.091,0.262-0.139,0.412-0.139c0.085,0,0.189,0.016,0.257,0.037c0.019,0.004,0.029,0.005,0.042,0.008C13.982,15.97,13.985,16.062,14,16.187"/>
    <path fill="#0F223E" d="M14.293,16.132c0-0.185-0.014-0.191-0.096-0.203l-0.028-0.003c-0.01-0.011-0.008-0.044,0.007-0.049c0.03,0.001,0.065,0.003,0.104,0.003c0.036,0.002,0.076,0.002,0.112,0.002h0.294c0.108,0,0.208-0.002,0.228-0.005c0.007,0.028,0.017,0.165,0.028,0.239c-0.006,0.016-0.042,0.019-0.053,0.007c-0.028-0.101-0.054-0.144-0.106-0.158c-0.04-0.01-0.091-0.014-0.136-0.014h-0.088c-0.072,0-0.072,0.004-0.072,0.102v0.314c0,0.045,0.003,0.046,0.04,0.046h0.056c0.147,0,0.175-0.001,0.188-0.077l0.012-0.06c0.011-0.011,0.045-0.011,0.052,0.001c-0.001,0.049-0.005,0.108-0.005,0.176c0,0.065,0.004,0.127,0.005,0.18c-0.007,0.013-0.041,0.013-0.052,0.004l-0.012-0.069c-0.013-0.071-0.041-0.077-0.188-0.077h-0.056c-0.037,0-0.04,0.006-0.04,0.048v0.198c0,0.09,0.004,0.152,0.029,0.182c0.021,0.024,0.023,0.039,0.165,0.039c0.215,0.003,0.227-0.049,0.284-0.188c0.014-0.013,0.046-0.008,0.055,0.01c-0.009,0.074-0.048,0.204-0.072,0.253c-0.036-0.004-0.065-0.004-0.137-0.004c-0.069-0.003-0.128-0.003-0.228-0.003h-0.191c-0.074,0-0.177,0.003-0.252,0.007c-0.014-0.008-0.016-0.038-0.004-0.051l0.061-0.007c0.082-0.009,0.096-0.014,0.096-0.2V16.132z"/>
    <path fill="#0F223E" d="M15.276,16.773c0,0.187-0.014,0.191-0.09,0.199l-0.034,0.007c-0.012,0.014-0.011,0.044,0.003,0.052c0.07-0.003,0.142-0.006,0.202-0.006c0.031,0,0.064,0.003,0.102,0.006c0.04,0,0.052,0.005,0.101,0.005c0.145,0,0.256-0.022,0.368-0.082c0.199-0.112,0.287-0.311,0.287-0.501c0-0.257-0.136-0.444-0.328-0.52c-0.114-0.045-0.199-0.057-0.349-0.057c-0.158,0-0.255,0.005-0.371,0.014c-0.012,0.01-0.012,0.039-0.001,0.049l0.033,0.006c0.077,0.01,0.077,0.028,0.077,0.194V16.773z M15.46,16.098c0-0.081,0.002-0.118,0.015-0.129c0.009-0.01,0.007-0.022,0.072-0.022c0.268,0,0.452,0.166,0.452,0.508c0,0.294-0.13,0.513-0.413,0.513c-0.169,0-0.126-0.092-0.126-0.26V16.098z"/>
    <path fill="#0F223E" d="M16.932,15.853c-0.33,0-0.563,0.262-0.563,0.615c0,0.31,0.205,0.584,0.561,0.584c0.317,0,0.554-0.253,0.554-0.596C17.484,16.14,17.296,15.853,16.932,15.853 M16.911,15.922c0.251,0,0.357,0.305,0.357,0.563c0,0.352-0.143,0.498-0.324,0.498c-0.268,0-0.36-0.327-0.36-0.565C16.584,16.049,16.756,15.922,16.911,15.922"/>
    <path fill="#0F223E" d="M13.506,18.915c-0.03-0.037-0.053-0.155-0.051-0.267c0.009-0.015,0.04-0.015,0.051-0.004c0.031,0.088,0.124,0.273,0.287,0.273c0.128,0,0.199-0.08,0.199-0.186c0-0.099-0.044-0.178-0.17-0.252l-0.073-0.042c-0.127-0.072-0.237-0.178-0.237-0.334c0-0.17,0.126-0.315,0.372-0.315c0.086,0,0.149,0.019,0.23,0.035c0.017,0.039,0.036,0.152,0.036,0.233c-0.01,0.016-0.04,0.019-0.055,0.005c-0.024-0.089-0.084-0.206-0.227-0.206c-0.136,0-0.192,0.091-0.192,0.184c0,0.07,0.049,0.15,0.162,0.21l0.104,0.059c0.109,0.058,0.231,0.165,0.231,0.34c0,0.198-0.147,0.34-0.391,0.34C13.628,18.988,13.541,18.936,13.506,18.915"/>
    <path fill="#0F223E" d="M14.495,18.076c0-0.158-0.002-0.184-0.073-0.193l-0.059-0.009c-0.01-0.011-0.01-0.04,0.003-0.047c0.116-0.015,0.219-0.016,0.371-0.016c0.159,0,0.277,0.022,0.353,0.07c0.086,0.053,0.141,0.144,0.141,0.259c0,0.263-0.243,0.335-0.376,0.335c-0.014,0-0.028,0-0.042-0.002c-0.012-0.009-0.013-0.032-0.007-0.043c0.154-0.03,0.21-0.145,0.21-0.286s-0.085-0.263-0.241-0.263c-0.083,0-0.083,0.004-0.083,0.071v0.757c0,0.183,0.012,0.189,0.092,0.197l0.062,0.008c0.01,0.013,0.009,0.045-0.003,0.049c-0.099-0.002-0.175-0.004-0.249-0.004c-0.072,0-0.148,0.002-0.219,0.004c-0.012-0.004-0.013-0.036-0.001-0.049l0.027-0.004c0.079-0.012,0.094-0.019,0.094-0.201V18.076z"/>
    <path fill="#0F223E" d="M15.488,18.71c0,0.184-0.016,0.19-0.094,0.198l-0.063,0.007c-0.011,0.012-0.009,0.045,0.004,0.049c0.074-0.003,0.177-0.004,0.251-0.004h0.192c0.1,0,0.185,0,0.255,0.001c0.069,0,0.104,0.002,0.139,0.003c0.027-0.047,0.061-0.178,0.072-0.251c-0.011-0.017-0.04-0.021-0.055-0.008c-0.057,0.14-0.074,0.188-0.289,0.185c-0.139,0-0.17-0.013-0.188-0.037c-0.025-0.03-0.03-0.09-0.03-0.181v-0.192c0-0.045,0.004-0.048,0.04-0.048h0.081c0.146,0,0.176,0.003,0.188,0.076L16,18.577c0.016,0.013,0.048,0.013,0.056-0.001c0-0.055-0.004-0.116-0.004-0.184c0-0.062,0.004-0.124,0.004-0.171c-0.008-0.016-0.04-0.016-0.056-0.004l-0.009,0.059c-0.012,0.077-0.042,0.077-0.188,0.077h-0.081c-0.036,0-0.04,0-0.04-0.044v-0.322c0-0.099,0-0.103,0.072-0.103h0.114c0.045,0,0.096,0.004,0.132,0.015c0.056,0.014,0.081,0.057,0.108,0.158c0.015,0.013,0.048,0.007,0.053-0.008c-0.01-0.073-0.02-0.21-0.027-0.238c-0.022,0.003-0.118,0.004-0.227,0.004h-0.321c-0.035,0-0.075,0-0.111-0.001c-0.038,0-0.074-0.001-0.104-0.003c-0.014,0.007-0.016,0.037-0.006,0.051l0.029,0.003c0.078,0.011,0.094,0.017,0.094,0.199V18.71z"/>
    <path fill="#0F223E" d="M16.458,18.915c-0.032-0.037-0.053-0.155-0.049-0.267c0.009-0.015,0.036-0.015,0.051-0.004c0.032,0.088,0.121,0.273,0.286,0.273c0.126,0,0.199-0.08,0.199-0.186c0-0.099-0.045-0.178-0.17-0.252l-0.073-0.042c-0.126-0.072-0.239-0.178-0.239-0.334c0-0.17,0.126-0.315,0.371-0.315c0.087,0,0.154,0.019,0.231,0.035c0.019,0.039,0.035,0.152,0.035,0.233c-0.008,0.016-0.037,0.019-0.053,0.005c-0.025-0.089-0.085-0.206-0.228-0.206c-0.135,0-0.191,0.091-0.191,0.184c0,0.07,0.05,0.15,0.162,0.21l0.105,0.059c0.108,0.058,0.23,0.165,0.23,0.34c0,0.198-0.147,0.34-0.392,0.34C16.579,18.988,16.493,18.936,16.458,18.915"/>
    <path fill="#0F223E" d="M21.968,13.741c0,4.069-1.253,7.299-3.048,9.839c0.003,0,0,0,0,0s-0.347-0.133-0.889-0.133c-1.15,0-1.495,0.676-2.869,0.676c-0.833,0-1.187-0.368-1.869-0.56v-1.656c0,0-0.204,0.289-0.883,0.289c-0.682,0-0.884-0.29-0.884-0.29v1.652c-0.682,0.193-1.037,0.562-1.869,0.562c-1.373,0-1.717-0.676-2.869-0.676c-0.548,0-0.897,0.133-0.897,0.133s-0.005,0.003,0,0c-1.795-2.538-3.047-5.764-3.047-9.836l-0.001-8.71h9.564h9.564L21.968,13.741z M16.248,26.596c-0.285,0.247-0.416,0.326-0.68,0.382c-0.133,0.027-0.408,0.039-0.408,0.039c-1.127,0-1.377-0.676-2.751-0.676c-1.376,0-1.625,0.676-2.752,0.676c0,0-0.276-0.012-0.407-0.039c-0.266-0.056-0.395-0.135-0.682-0.382c-0.556-0.481-1.037-0.985-1.543-1.568c1.034,0.002,1.292,0.626,2.632,0.626c1.127,0,1.376-0.677,2.752-0.677c1.374,0,1.624,0.677,2.751,0.677c1.34,0,1.594-0.624,2.631-0.626C17.286,25.61,16.803,26.114,16.248,26.596 M12.407,29.36c-0.548-0.312-1.078-0.641-1.644-1.031c0.442-0.197,0.828-0.493,1.646-0.493c0.811,0,1.202,0.296,1.643,0.493C13.488,28.718,12.952,29.05,12.407,29.36 M12.407,3.521H1.334l0.001,10.064c0,9.599,6.098,14.736,11.072,17.54c4.974-2.804,11.072-7.941,11.072-17.54L23.48,3.521H12.407z"/>
    <path fill="#0F223E" d="M13.287,11.803h3.812l1.286,0.744V9.511l-1.286,0.744h-3.812l0.003,0.002V7.308l0.748-1.294h-3.261l0.748,1.294v2.947H7.713L6.427,9.511v3.036l1.286-0.744h3.812v1.548c0,0,0.513,0.058,0.883,0.265c0.369-0.207,0.882-0.265,0.882-0.265v-1.548H13.287z"/>
  </g>
  <g class="hesburgh-libraries">
    <path fill="#0E223D" stroke="#0E223D" stroke-width="0.2" d="M29.869,35.113c-0.596,0-0.621,0.024-0.621,0.396v1.75c0,1.302,0.062,1.476,0.757,1.55l0.36,0.038c0.074,0.049,0.05,0.272-0.025,0.31c-0.67-0.024-1.092-0.037-1.576-0.037c-0.533,0-0.955,0.024-1.439,0.037c-0.074-0.037-0.099-0.235-0.024-0.31l0.21-0.038c0.695-0.124,0.72-0.248,0.72-1.55v-4.467c0-1.302-0.087-1.513-0.732-1.562l-0.323-0.025c-0.074-0.049-0.049-0.272,0.025-0.31c0.608,0.013,1.03,0.037,1.563,0.037c0.484,0,0.906-0.013,1.439-0.037c0.074,0.037,0.099,0.261,0.024,0.31l-0.235,0.025c-0.72,0.074-0.745,0.261-0.745,1.562v1.427c0,0.385,0.025,0.397,0.621,0.397h3.548c0.595,0,0.62-0.013,0.62-0.397v-1.427c0-1.302-0.025-1.488-0.757-1.562l-0.235-0.025c-0.075-0.049-0.05-0.272,0.024-0.31c0.571,0.024,0.993,0.037,1.501,0.037c0.483,0,0.905-0.013,1.464-0.037c0.074,0.037,0.099,0.261,0.024,0.31l-0.26,0.025c-0.72,0.074-0.745,0.261-0.745,1.562v4.467c0,1.302,0.025,1.464,0.745,1.55l0.298,0.038c0.074,0.049,0.049,0.272-0.025,0.31c-0.596-0.024-1.018-0.037-1.501-0.037c-0.509,0-0.956,0.013-1.501,0.037c-0.074-0.037-0.099-0.235-0.024-0.31l0.235-0.038c0.757-0.124,0.757-0.248,0.757-1.55v-1.75c0-0.372-0.025-0.396-0.62-0.396H29.869z"/>
    <path fill="#0E223D" stroke="#0E223D" stroke-width="0.2" d="M37.879,35.944c-0.323,0-0.335,0.024-0.335,0.335c0,1.253,0.732,2.319,2.059,2.319c0.41,0,0.757-0.124,1.142-0.607c0.124-0.037,0.211,0.037,0.223,0.148c-0.409,0.844-1.303,1.154-1.948,1.154c-0.806,0-1.439-0.348-1.799-0.819c-0.372-0.483-0.521-1.066-0.521-1.612c0-1.525,1.005-2.804,2.494-2.804c1.067,0,1.762,0.732,1.762,1.477c0,0.174-0.025,0.272-0.05,0.322c-0.037,0.074-0.211,0.087-0.732,0.087H37.879z M38.648,35.572c0.918,0,1.191-0.05,1.29-0.124c0.037-0.025,0.075-0.074,0.075-0.235c0-0.348-0.236-0.782-0.956-0.782c-0.732,0-1.364,0.67-1.377,1.079c0,0.025,0,0.062,0.087,0.062H38.648z"/>
    <path fill="#0E223D" stroke="#0E223D" stroke-width="0.2" d="M44.427,34.282c0.112,0.272,0.199,0.67,0.199,1.005c-0.05,0.087-0.236,0.111-0.298,0.037c-0.211-0.546-0.583-0.905-1.092-0.905c-0.484,0-0.794,0.31-0.794,0.756c0,0.509,0.521,0.782,0.956,1.03c0.657,0.372,1.265,0.794,1.265,1.675c0,0.942-0.868,1.414-1.786,1.414c-0.583,0-1.018-0.124-1.328-0.372c-0.099-0.236-0.174-0.844-0.149-1.253c0.062-0.074,0.223-0.087,0.286-0.013c0.21,0.683,0.607,1.277,1.315,1.277c0.446,0,0.831-0.26,0.831-0.794c0-0.57-0.496-0.88-0.955-1.141c-0.72-0.409-1.229-0.844-1.229-1.526c0-0.905,0.745-1.414,1.688-1.414C43.856,34.059,44.315,34.183,44.427,34.282z"/>
    <path fill="#0E223D" stroke="#0E223D" stroke-width="0.2" d="M45.814,32.123c0-0.731-0.012-0.806-0.384-1.029l-0.124-0.074c-0.062-0.037-0.062-0.211,0-0.248c0.285-0.112,0.881-0.273,1.352-0.521c0.05,0,0.099,0.025,0.124,0.074c-0.025,0.435-0.049,0.993-0.049,1.539v2.345c0,0.211,0.049,0.26,0.124,0.26c0.322-0.186,0.818-0.409,1.426-0.409c1.415,0,2.37,1.067,2.37,2.432c0,1.649-1.191,2.804-2.854,2.804c-0.459,0-0.806-0.087-1.054-0.161c-0.261-0.087-0.422-0.161-0.521-0.161s-0.199,0.099-0.261,0.186c-0.012,0.013-0.024,0.013-0.049,0.013c-0.05,0-0.1-0.025-0.124-0.074c0.012-0.174,0.024-0.41,0.024-1.055V32.123z M46.732,37.433c0,0.435,0.099,0.819,0.31,1.08c0.211,0.26,0.546,0.409,0.943,0.409c1.166,0,1.625-0.993,1.625-2.06c0-1.277-0.658-2.271-1.886-2.271c-0.372,0-0.67,0.087-0.844,0.199c-0.124,0.087-0.148,0.223-0.148,0.707V37.433z"/>
    <path fill="#0E223D" stroke="#0E223D" stroke-width="0.2" d="M52.623,37.297c0,0.855,0.21,1.427,1.153,1.427c0.335,0,0.732-0.137,1.005-0.373c0.162-0.148,0.248-0.335,0.248-0.719v-2.035c0-0.806-0.086-0.831-0.459-0.979l-0.161-0.062c-0.087-0.05-0.087-0.223,0.012-0.272c0.497-0.013,1.179-0.1,1.452-0.224c0.062,0.013,0.099,0.037,0.112,0.087c-0.025,0.235-0.038,0.62-0.038,1.079v2.084c0,0.98,0.038,1.353,0.385,1.353c0.149,0,0.31-0.024,0.484-0.062c0.074,0.062,0.087,0.311-0.013,0.36c-0.483,0.099-1.203,0.224-1.625,0.459c-0.062,0-0.124-0.037-0.149-0.087v-0.509c0-0.111-0.037-0.174-0.111-0.174c-0.372,0.236-0.98,0.646-1.712,0.646c-1.092,0-1.501-0.546-1.501-1.551v-2.071c0-0.782,0-0.894-0.373-1.055l-0.149-0.062c-0.074-0.062-0.062-0.235,0.025-0.272c0.571-0.013,1.055-0.124,1.328-0.224c0.074,0.013,0.111,0.037,0.124,0.087c-0.025,0.211-0.037,0.472-0.037,1.079V37.297z"/>
    <path fill="#0E223D" stroke="#0E223D" stroke-width="0.2" d="M58.066,35.56c0-0.483,0-0.546-0.335-0.769l-0.112-0.075c-0.049-0.049-0.049-0.186,0.013-0.223c0.285-0.1,0.942-0.422,1.253-0.608c0.062,0.013,0.099,0.037,0.099,0.087v0.72c0,0.062,0.012,0.1,0.037,0.111c0.434-0.359,0.906-0.744,1.365-0.744c0.31,0,0.558,0.198,0.558,0.496c0,0.409-0.335,0.571-0.533,0.571c-0.124,0-0.186-0.038-0.273-0.087c-0.186-0.124-0.373-0.199-0.546-0.199c-0.199,0-0.348,0.112-0.447,0.248c-0.124,0.174-0.161,0.534-0.161,0.956v1.687c0,0.894,0.025,1.042,0.496,1.079l0.447,0.038c0.087,0.062,0.062,0.272-0.025,0.31c-0.583-0.024-0.943-0.037-1.377-0.037c-0.447,0-0.819,0.013-1.142,0.037c-0.086-0.037-0.111-0.248-0.024-0.31l0.235-0.038c0.459-0.074,0.472-0.186,0.472-1.079V35.56z"/>
    <path fill="#0E223D" stroke="#0E223D" stroke-width="0.2" d="M66.351,34.505c0.137,0.062,0.112,0.484-0.074,0.509h-0.894c0.025,0.211,0.025,0.422,0.025,0.633c0,0.856-0.508,1.973-2.084,1.973c-0.223,0-0.397-0.024-0.546-0.037c-0.149,0.087-0.546,0.322-0.546,0.682c0,0.286,0.286,0.521,0.869,0.521c0.422,0,0.93-0.037,1.476-0.037c0.695,0,1.737,0.124,1.737,1.364c0,1.353-1.476,2.345-3.089,2.345c-1.526,0-2.06-0.818-2.06-1.438c0-0.199,0.05-0.36,0.137-0.459c0.211-0.224,0.558-0.546,0.843-0.832c0.112-0.111,0.211-0.223,0.1-0.297c-0.484-0.124-0.906-0.546-0.906-0.98c0-0.062,0.05-0.111,0.186-0.211c0.211-0.137,0.447-0.348,0.658-0.57c0.062-0.074,0.124-0.174,0.124-0.236c-0.422-0.223-0.931-0.707-0.931-1.501c0-1.066,0.918-1.873,2.022-1.873c0.471,0,0.905,0.124,1.19,0.248c0.397,0.174,0.484,0.198,0.757,0.198H66.351z M63.758,39.517c-0.397,0-0.893,0.025-1.067,0.137c-0.297,0.187-0.595,0.571-0.595,1.042c0,0.67,0.533,1.229,1.662,1.229c1.104,0,1.836-0.62,1.836-1.327c0-0.757-0.521-1.08-1.414-1.08H63.758z M64.527,35.969c0-0.843-0.347-1.55-1.104-1.55c-0.595,0-1.042,0.545-1.042,1.389c0,0.881,0.534,1.452,1.129,1.452C64.18,37.26,64.527,36.726,64.527,35.969z"/>
    <path fill="#0E223D" stroke="#0E223D" stroke-width="0.2" d="M67.291,32.123c0-0.731-0.013-0.806-0.385-1.029l-0.124-0.074c-0.062-0.037-0.062-0.211,0-0.248c0.31-0.1,0.893-0.285,1.34-0.521c0.05,0,0.099,0.025,0.124,0.074c-0.012,0.373-0.037,0.993-0.037,1.539v2.604c0,0.112,0.012,0.211,0.049,0.236c0.447-0.348,1.042-0.646,1.675-0.646c1.179,0,1.601,0.732,1.601,1.601v2.071c0,0.894,0.025,1.03,0.471,1.079l0.335,0.038c0.087,0.062,0.062,0.272-0.025,0.31c-0.446-0.024-0.806-0.037-1.24-0.037c-0.447,0-0.819,0.013-1.154,0.037c-0.087-0.037-0.112-0.248-0.025-0.31l0.248-0.038c0.459-0.074,0.472-0.186,0.472-1.079v-1.773c0-0.794-0.385-1.328-1.179-1.328c-0.422,0-0.744,0.149-0.968,0.335c-0.223,0.187-0.26,0.249-0.26,0.683v2.084c0,0.894,0.025,1.018,0.471,1.079l0.261,0.038c0.087,0.049,0.062,0.272-0.025,0.31c-0.372-0.024-0.732-0.037-1.166-0.037c-0.447,0-0.819,0.013-1.216,0.037c-0.087-0.037-0.112-0.248-0.025-0.31l0.31-0.038c0.459-0.049,0.472-0.186,0.472-1.079V32.123z"/>
    <path fill="#0E223D" stroke="#0E223D" stroke-width="0.2" d="M76.976,32.793c0-1.302-0.025-1.501-0.807-1.562l-0.311-0.025c-0.074-0.049-0.049-0.272,0.025-0.31c0.695,0.024,1.117,0.037,1.613,0.037c0.483,0,0.905-0.013,1.526-0.037c0.074,0.037,0.1,0.261,0.023,0.31L78.75,31.23c-0.732,0.062-0.757,0.261-0.757,1.562v4.317c0,0.781,0.038,1.104,0.261,1.34c0.137,0.137,0.372,0.285,1.352,0.285c1.055,0,1.316-0.05,1.514-0.161c0.248-0.148,0.57-0.596,0.818-1.229c0.074-0.062,0.311-0.012,0.311,0.075c0,0.136-0.348,1.401-0.521,1.736c-0.633-0.024-1.811-0.037-3.088-0.037h-1.142c-0.521,0-0.918,0.013-1.613,0.037c-0.074-0.037-0.099-0.235-0.025-0.31l0.373-0.038c0.719-0.074,0.745-0.248,0.745-1.55V32.793z"/>
    <path fill="#0E223D" stroke="#0E223D" stroke-width="0.2" d="M83.312,35.56c0-0.483,0-0.546-0.336-0.769l-0.111-0.075c-0.049-0.049-0.049-0.186,0.012-0.223c0.285-0.1,0.994-0.422,1.279-0.608c0.061,0,0.111,0.025,0.123,0.075c-0.025,0.434-0.049,1.029-0.049,1.538v2.232c0,0.894,0.023,1.018,0.471,1.079l0.26,0.038c0.088,0.062,0.062,0.272-0.023,0.31c-0.373-0.024-0.732-0.037-1.166-0.037c-0.447,0-0.818,0.013-1.166,0.037c-0.088-0.037-0.111-0.248-0.025-0.31l0.26-0.038c0.459-0.062,0.473-0.186,0.473-1.079V35.56z M84.341,32.024c0,0.446-0.311,0.645-0.658,0.645c-0.385,0-0.633-0.285-0.633-0.62c0-0.409,0.299-0.67,0.67-0.67C84.093,31.379,84.341,31.677,84.341,32.024z"/>
    <path fill="#0E223D" stroke="#0E223D" stroke-width="0.2" d="M85.792,32.123c0-0.731-0.014-0.806-0.385-1.029l-0.125-0.074c-0.062-0.037-0.062-0.211,0-0.248c0.285-0.112,0.881-0.273,1.354-0.521c0.049,0,0.098,0.025,0.123,0.074c-0.025,0.435-0.049,0.993-0.049,1.539v2.345c0,0.211,0.049,0.26,0.123,0.26c0.322-0.186,0.818-0.409,1.428-0.409c1.414,0,2.369,1.067,2.369,2.432c0,1.649-1.191,2.804-2.854,2.804c-0.459,0-0.807-0.087-1.055-0.161c-0.26-0.087-0.422-0.161-0.521-0.161s-0.197,0.099-0.26,0.186c-0.014,0.013-0.025,0.013-0.051,0.013c-0.049,0-0.098-0.025-0.123-0.074c0.012-0.174,0.025-0.41,0.025-1.055V32.123z M86.71,37.433c0,0.435,0.098,0.819,0.309,1.08c0.211,0.26,0.547,0.409,0.943,0.409c1.166,0,1.625-0.993,1.625-2.06c0-1.277-0.656-2.271-1.885-2.271c-0.373,0-0.67,0.087-0.844,0.199c-0.125,0.087-0.148,0.223-0.148,0.707V37.433z"/>
    <path fill="#0E223D" stroke="#0E223D" stroke-width="0.2" d="M91.83,35.56c0-0.483,0-0.546-0.334-0.769l-0.111-0.075c-0.051-0.049-0.051-0.186,0.012-0.223c0.285-0.1,0.943-0.422,1.252-0.608c0.062,0.013,0.1,0.037,0.1,0.087v0.72c0,0.062,0.014,0.1,0.037,0.111c0.436-0.359,0.906-0.744,1.365-0.744c0.311,0,0.559,0.198,0.559,0.496c0,0.409-0.336,0.571-0.533,0.571c-0.125,0-0.188-0.038-0.273-0.087c-0.186-0.124-0.373-0.199-0.547-0.199c-0.197,0-0.346,0.112-0.445,0.248c-0.125,0.174-0.162,0.534-0.162,0.956v1.687c0,0.894,0.025,1.042,0.496,1.079l0.447,0.038c0.086,0.062,0.062,0.272-0.025,0.31c-0.582-0.024-0.941-0.037-1.377-0.037c-0.445,0-0.818,0.013-1.141,0.037c-0.088-0.037-0.111-0.248-0.025-0.31l0.236-0.038c0.459-0.074,0.471-0.186,0.471-1.079V35.56z"/>
    <path fill="#0E223D" stroke="#0E223D" stroke-width="0.2" d="M97.523,36.552c0.186-0.062,0.211-0.173,0.211-0.359l0.012-0.57c0.012-0.459-0.137-1.079-0.906-1.079c-0.348,0-0.77,0.173-0.793,0.558c-0.014,0.198-0.025,0.348-0.125,0.422c-0.186,0.149-0.521,0.235-0.707,0.235c-0.111,0-0.174-0.062-0.174-0.173c0-0.646,1.402-1.526,2.309-1.526c0.893,0,1.326,0.521,1.289,1.451l-0.074,2.159c-0.025,0.57,0.088,1.079,0.57,1.079c0.125,0,0.236-0.037,0.311-0.074c0.062-0.037,0.125-0.087,0.162-0.087c0.049,0,0.086,0.074,0.086,0.161c0,0.062-0.434,0.546-1.041,0.546c-0.299,0-0.596-0.111-0.807-0.385c-0.051-0.074-0.125-0.174-0.199-0.174c-0.086,0-0.236,0.112-0.484,0.248c-0.271,0.149-0.545,0.311-0.893,0.311c-0.359,0-0.658-0.1-0.869-0.285c-0.234-0.211-0.383-0.521-0.383-0.869c0-0.483,0.234-0.769,1.029-1.054L97.523,36.552z M96.753,38.735c0.248,0,0.633-0.186,0.756-0.31c0.148-0.149,0.148-0.323,0.162-0.583l0.023-0.732c0-0.137-0.049-0.161-0.123-0.161s-0.285,0.05-0.508,0.124c-0.732,0.248-1.092,0.435-1.092,0.918C95.972,38.202,96.121,38.735,96.753,38.735z"/>
    <path fill="#0E223D" stroke="#0E223D" stroke-width="0.2" d="M100.66,35.56c0-0.483,0-0.546-0.336-0.769l-0.111-0.075c-0.049-0.049-0.049-0.186,0.012-0.223c0.285-0.1,0.943-0.422,1.254-0.608c0.062,0.013,0.1,0.037,0.1,0.087v0.72c0,0.062,0.012,0.1,0.037,0.111c0.434-0.359,0.904-0.744,1.363-0.744c0.311,0,0.559,0.198,0.559,0.496c0,0.409-0.334,0.571-0.533,0.571c-0.123,0-0.186-0.038-0.273-0.087c-0.186-0.124-0.371-0.199-0.545-0.199c-0.199,0-0.348,0.112-0.447,0.248c-0.123,0.174-0.16,0.534-0.16,0.956v1.687c0,0.894,0.023,1.042,0.496,1.079l0.445,0.038c0.088,0.062,0.062,0.272-0.023,0.31c-0.584-0.024-0.943-0.037-1.377-0.037c-0.447,0-0.818,0.013-1.143,0.037c-0.086-0.037-0.111-0.248-0.023-0.31l0.234-0.038c0.459-0.074,0.473-0.186,0.473-1.079V35.56z"/>
    <path fill="#0E223D" stroke="#0E223D" stroke-width="0.2" d="M104.626,35.56c0-0.483,0-0.546-0.334-0.769l-0.111-0.075c-0.051-0.049-0.051-0.186,0.012-0.223c0.285-0.1,0.992-0.422,1.277-0.608c0.062,0,0.111,0.025,0.125,0.075c-0.025,0.434-0.051,1.029-0.051,1.538v2.232c0,0.894,0.025,1.018,0.473,1.079l0.26,0.038c0.086,0.062,0.062,0.272-0.025,0.31c-0.371-0.024-0.73-0.037-1.166-0.037c-0.445,0-0.818,0.013-1.166,0.037c-0.086-0.037-0.111-0.248-0.025-0.31l0.262-0.038c0.459-0.062,0.471-0.186,0.471-1.079V35.56z M105.656,32.024c0,0.446-0.309,0.645-0.656,0.645c-0.385,0-0.633-0.285-0.633-0.62c0-0.409,0.297-0.67,0.67-0.67C105.408,31.379,105.656,31.677,105.656,32.024z"/>
    <path fill="#0E223D" stroke="#0E223D" stroke-width="0.2" d="M108.062,35.944c-0.322,0-0.336,0.024-0.336,0.335c0,1.253,0.732,2.319,2.061,2.319c0.408,0,0.756-0.124,1.141-0.607c0.125-0.037,0.211,0.037,0.223,0.148c-0.408,0.844-1.301,1.154-1.947,1.154c-0.807,0-1.438-0.348-1.799-0.819c-0.371-0.483-0.52-1.066-0.52-1.612c0-1.525,1.004-2.804,2.492-2.804c1.066,0,1.762,0.732,1.762,1.477c0,0.174-0.025,0.272-0.049,0.322c-0.037,0.074-0.211,0.087-0.732,0.087H108.062z M108.832,35.572c0.918,0,1.191-0.05,1.289-0.124c0.037-0.025,0.074-0.074,0.074-0.235c0-0.348-0.234-0.782-0.955-0.782c-0.73,0-1.363,0.67-1.377,1.079c0,0.025,0,0.062,0.088,0.062H108.832z"/>
    <path fill="#0E223D" stroke="#0E223D" stroke-width="0.2" d="M114.609,34.282c0.111,0.272,0.199,0.67,0.199,1.005c-0.051,0.087-0.236,0.111-0.299,0.037c-0.211-0.546-0.582-0.905-1.092-0.905c-0.482,0-0.793,0.31-0.793,0.756c0,0.509,0.521,0.782,0.955,1.03c0.658,0.372,1.266,0.794,1.266,1.675c0,0.942-0.869,1.414-1.787,1.414c-0.582,0-1.018-0.124-1.326-0.372c-0.1-0.236-0.174-0.844-0.15-1.253c0.062-0.074,0.225-0.087,0.285-0.013c0.211,0.683,0.609,1.277,1.316,1.277c0.445,0,0.83-0.26,0.83-0.794c0-0.57-0.496-0.88-0.955-1.141c-0.719-0.409-1.229-0.844-1.229-1.526c0-0.905,0.744-1.414,1.688-1.414C114.039,34.059,114.498,34.183,114.609,34.282z"/>
  </g>
</svg>
